<svg width="40" height="42" viewBox="0 0 40 42" fill="none" xmlns="http://www.w3.org/2000/svg">
<path fill-rule="evenodd" clip-rule="evenodd" d="M0 20.522C-3.9137e-08 17.8312 0.517315 15.1666 1.52241 12.6806C2.5275 10.1945 4.00069 7.93561 5.85786 6.03287C7.71504 4.13012 9.91982 2.62078 12.3463 1.59102C14.7728 0.56126 17.3736 0.03125 20 0.03125C22.6264 0.03125 25.2272 0.56126 27.6537 1.59102C30.0802 2.62078 32.285 4.13012 34.1421 6.03287C35.9993 7.93561 37.4725 10.1945 38.4776 12.6806C39.4827 15.1666 40 17.8312 40 20.522C40 25.9565 37.8929 31.1685 34.1421 35.0112C30.3914 38.854 25.3043 41.0128 20 41.0128C14.6957 41.0128 9.60859 38.854 5.85786 35.0112C2.10714 31.1685 7.90407e-08 25.9565 0 20.522Z" fill="#FB5E3C"/>
</svg>
