<svg width="41" height="39" viewBox="0 0 41 39" fill="none" xmlns="http://www.w3.org/2000/svg">
<path d="M6.40625 7.3125C4.29859 7.3125 2.5625 8.96391 2.5625 10.9688V28.0312C2.5625 30.0361 4.29859 31.6875 6.40625 31.6875H34.5938C36.7014 31.6875 38.4375 30.0361 38.4375 28.0312V10.9688C38.4375 8.96391 36.7014 7.3125 34.5938 7.3125H6.40625ZM6.40625 9.75H34.5938C35.3189 9.75 35.875 10.2789 35.875 10.9688V28.0312C35.875 28.7211 35.3189 29.25 34.5938 29.25H6.40625C5.68106 29.25 5.125 28.7211 5.125 28.0312V10.9688C5.125 10.2789 5.68106 9.75 6.40625 9.75ZM13.3737 17.2526C12.5716 17.2526 11.972 17.8047 11.972 18.5092C11.972 19.1003 12.2667 19.3952 13.0931 19.6913C13.5736 19.862 13.9733 19.9619 13.9733 20.3763C13.9733 20.7236 13.6889 20.9857 13.293 20.9857C13.0916 20.99 12.8933 20.9382 12.7226 20.8367C12.5518 20.7351 12.416 20.5882 12.332 20.4141L11.7311 20.9089C12.1373 21.4756 12.6626 21.7474 13.3327 21.7474C14.2488 21.7474 14.8548 21.1709 14.8548 20.3373C14.8548 19.6523 14.5742 19.3135 13.5736 18.9662C13.0431 18.7809 12.8932 18.6664 12.8932 18.4336C12.8932 18.1618 13.1533 17.9766 13.5338 17.9766C13.7991 17.9766 14.0233 18.0765 14.2539 18.319L14.7344 17.7474C14.3575 17.4324 13.8754 17.2568 13.3737 17.2526ZM17.5377 17.2526C16.2014 17.2575 15.1341 18.2483 15.1341 19.5C15.1341 20.7614 16.1963 21.7474 17.5377 21.7474C17.917 21.7474 18.2578 21.6621 18.6576 21.4805V20.4896C18.3078 20.8236 17.9785 20.9467 17.5775 20.9467C16.6908 20.9467 16.0553 20.3336 16.0553 19.4622C16.0553 18.6383 16.7113 18.0143 17.5365 18.0143C17.958 18.0143 18.2924 18.1289 18.6588 18.4714V17.4817C18.2732 17.2953 17.9183 17.2526 17.5377 17.2526ZM21.2611 17.2526C20.6348 17.2536 20.0344 17.4907 19.5916 17.9119C19.1487 18.3332 18.8995 18.9043 18.8984 19.5C18.8984 20.7383 19.9593 21.7474 21.2611 21.7474C21.8871 21.7461 22.4872 21.5089 22.9297 21.0876C23.3723 20.6664 23.6214 20.0955 23.6224 19.5C23.6214 18.9045 23.3723 18.3336 22.9297 17.9124C22.4872 17.4911 21.8871 17.2539 21.2611 17.2526ZM6.40625 17.3306V21.634H7.6875C9.65422 21.634 10.1296 20.1715 10.1296 19.5012C10.1296 18.2337 9.11866 17.3306 7.6875 17.3306H6.40625ZM10.5306 17.3306V21.634H11.4108V17.3306H10.5306ZM23.4635 17.3306L25.3854 21.7486H25.8659L27.8262 17.3306H26.8652L25.625 20.2239L24.4232 17.3294L23.4635 17.3306ZM28.2272 17.3306V21.634H30.7103V20.9101H29.1087V19.7303H30.6693V19.0064H29.11V18.0546H30.7116V17.3306H28.2272ZM31.3112 17.3306V21.634H32.1914V19.9205H32.2721L33.5124 21.634H34.5938L33.1523 19.8059C33.8186 19.6779 34.194 19.2453 34.194 18.5872C34.194 17.7828 33.6072 17.3306 32.5924 17.3306H31.3112ZM32.1914 18.0156H32.4323C32.9832 18.0156 33.3125 18.2447 33.3125 18.6627C33.3125 19.0966 32.9973 19.3111 32.431 19.3111H32.1914V18.0156ZM7.28647 18.0533H7.56834C8.76888 18.0533 9.20834 18.8248 9.20834 19.5012C9.20834 19.8254 9.11353 20.9101 7.52734 20.9101H7.28647V18.0533Z" fill="#001514"/>
</svg>
