<svg width="41" height="40" viewBox="0 0 41 40" fill="none" xmlns="http://www.w3.org/2000/svg">
<path d="M6.40625 7.5C4.29859 7.5 2.5625 9.19375 2.5625 11.25V28.75C2.5625 30.8062 4.29859 32.5 6.40625 32.5H34.5938C36.7014 32.5 38.4375 30.8062 38.4375 28.75V11.25C38.4375 9.19375 36.7014 7.5 34.5938 7.5H6.40625ZM6.40625 10H34.5938C35.3177 10 35.875 10.5438 35.875 11.25V28.75C35.875 29.4562 35.3177 30 34.5938 30H6.40625C5.68234 30 5.125 29.4562 5.125 28.75V11.25C5.125 10.5438 5.68234 10 6.40625 10ZM24.8639 15.4688C22.3962 15.4688 21.1009 16.6562 21.1009 18.1637C21.1009 20.8925 24.3809 20.5138 24.3809 21.9137C24.3809 22.155 24.1759 22.6975 22.8178 22.6975C21.4597 22.6975 20.5756 22.2288 20.5756 22.2288L20.1784 24.0287C20.1784 24.0287 21.0176 24.535 22.7025 24.535C24.3809 24.535 26.7435 23.275 26.7435 21.4475C26.7435 19.2525 23.4597 19.1075 23.4597 18.1287C23.4597 17.6287 23.8953 17.2288 25.0612 17.2288C25.8223 17.2288 26.6628 17.8162 26.6628 17.8162L27.0651 15.9037C27.0651 15.9037 25.9504 15.4725 24.8614 15.4725L24.8639 15.4688ZM14.3346 15.625L12.1719 21.7975C12.1719 21.7975 12.0642 21.2625 12.0117 20.9375C10.7881 18.2625 8.80859 17.265 8.80859 17.265L10.692 24.2575H13.2545L16.8548 15.625H14.3372H14.3346ZM17.7773 15.625L16.3757 24.2575H18.7408L20.1413 15.625H17.7773ZM30.5104 15.625L26.6667 24.2575H28.9883L29.4688 23.0475H32.4323L32.6719 24.2575H34.7936L32.9922 15.625H30.5104ZM6.20509 15.6625C6.20509 15.6625 10.8138 17.0437 11.8913 20.43L11.0931 16.5238C11.0931 16.5238 10.7407 15.6613 9.81181 15.6613H6.20637L6.20509 15.6625ZM31.3906 18.125L32.0697 21.3675H30.1478L31.3906 18.125Z" fill="#001514"/>
</svg>
