<svg width="48" height="46" viewBox="0 0 48 46" fill="none" xmlns="http://www.w3.org/2000/svg">
<g id="ph:heart">
<path id="Vector" d="M33.2095 6.26758C29.4068 6.26758 26.0773 7.82852 24.002 10.467C21.9266 7.82852 18.5971 6.26758 14.7944 6.26758C11.7673 6.27083 8.86524 7.42011 6.7248 9.46325C4.58436 11.5064 3.38036 14.2766 3.37695 17.166C3.37695 29.4707 22.4901 39.4305 23.304 39.8418C23.5185 39.952 23.7584 40.0096 24.002 40.0096C24.2456 40.0096 24.4854 39.952 24.6999 39.8418C25.5138 39.4305 44.627 29.4707 44.627 17.166C44.6235 14.2766 43.4195 11.5064 41.2791 9.46325C39.1387 7.42011 36.2366 6.27083 33.2095 6.26758ZM24.002 36.9941C20.6393 35.1238 6.32338 26.6037 6.32338 17.166C6.32631 15.0223 7.21972 12.9673 8.8077 11.4515C10.3957 9.93567 12.5486 9.08287 14.7944 9.08008C18.3761 9.08008 21.3833 10.9012 22.6392 13.8262C22.7502 14.0841 22.939 14.3047 23.1817 14.4599C23.4243 14.6152 23.7098 14.6981 24.002 14.6981C24.2941 14.6981 24.5796 14.6152 24.8222 14.4599C25.0649 14.3047 25.2537 14.0841 25.3647 13.8262C26.6206 10.8959 29.6278 9.08008 33.2095 9.08008C35.4553 9.08287 37.6082 9.93567 39.1962 11.4515C40.7842 12.9673 41.6776 15.0223 41.6805 17.166C41.6805 26.5896 27.3609 35.1221 24.002 36.9941Z" fill="#191919"/>
</g>
</svg>
