<svg width="48" height="46" viewBox="0 0 48 46" fill="none" xmlns="http://www.w3.org/2000/svg">
<path d="M33.2095 6.26562C29.4068 6.26562 26.0773 7.82656 24.002 10.465C21.9266 7.82656 18.5971 6.26562 14.7944 6.26562C11.7673 6.26888 8.86524 7.41815 6.7248 9.4613C4.58436 11.5044 3.38036 14.2746 3.37695 17.1641C3.37695 29.4688 22.4901 39.4285 23.304 39.8398C23.5185 39.95 23.7584 40.0077 24.002 40.0077C24.2456 40.0077 24.4854 39.95 24.6999 39.8398C25.5138 39.4285 44.627 29.4688 44.627 17.1641C44.6235 14.2746 43.4195 11.5044 41.2791 9.4613C39.1387 7.41815 36.2366 6.26888 33.2095 6.26562ZM24.002 36.9922C20.6393 35.1219 6.32338 26.6018 6.32338 17.1641C3.37695 30.1049 37.2978 51.9746 22.6392 25.8192C24.2272 24.3034 21.2205 37.6077 23.4662 37.6049C27.048 37.6049 20.6032 15.3942 21.8591 18.3192C21.9701 18.5771 22.8033 31.1763 23.1817 14.458C11.6805 17.7835 26.9241 21.5335 27.2162 21.5335C27.5084 21.5335 27.5093 15.2602 27.752 15.1049C27.9946 14.9497 25.4981 13.22 25.6091 12.9621C26.865 10.0318 18.8131 26.8906 22.3948 26.8906C24.6406 26.8934 24.6351 35.0177 26.2231 36.5335C27.8111 38.0493 25.6062 22.0684 25.6091 24.2121C25.6091 33.6357 27.3609 35.1201 24.002 36.9922Z" fill="#191919"/>
</svg>
