<svg width="296" height="120" viewBox="0 0 296 120" fill="none" xmlns="http://www.w3.org/2000/svg">
<rect width="296" height="120" rx="20" fill="#FB5E3C"/>
<path d="M148 68C133.64 68 122 56.3572 122 42C122 27.6402 133.64 16 148 16C162.36 16 174 27.6402 174 42C174 56.3572 162.36 68 148 68ZM148 62.8C153.517 62.8 158.807 60.6086 162.708 56.7078C166.609 52.8071 168.8 47.5165 168.8 42C168.8 36.4835 166.609 31.1929 162.708 27.2922C158.807 23.3914 153.517 21.2 148 21.2C142.483 21.2 137.193 23.3914 133.292 27.2922C129.391 31.1929 127.2 36.4835 127.2 42C127.2 47.5165 129.391 52.8071 133.292 56.7078C137.193 60.6086 142.483 62.8 148 62.8ZM148 57.6V26.4C152.137 26.4 156.105 28.0436 159.031 30.9691C161.956 33.8947 163.6 37.8626 163.6 42C163.6 46.1374 161.956 50.1053 159.031 53.0309C156.105 55.9564 152.137 57.6 148 57.6Z" fill="white"/>
<path d="M100.371 89.36C100.371 88.32 100.555 87.304 100.923 86.312C101.291 85.304 101.827 84.392 102.531 83.576C103.251 82.744 104.123 82.088 105.147 81.608C106.171 81.112 107.331 80.864 108.627 80.864C110.163 80.864 111.491 81.216 112.611 81.92C113.731 82.608 114.563 83.496 115.107 84.584L112.995 86C112.675 85.312 112.267 84.768 111.771 84.368C111.291 83.968 110.763 83.688 110.187 83.528C109.627 83.368 109.075 83.288 108.531 83.288C107.635 83.288 106.851 83.472 106.179 83.84C105.507 84.192 104.939 84.664 104.475 85.256C104.027 85.848 103.683 86.512 103.443 87.248C103.219 87.984 103.107 88.72 103.107 89.456C103.107 90.272 103.243 91.064 103.515 91.832C103.787 92.584 104.163 93.256 104.643 93.848C105.139 94.424 105.723 94.88 106.395 95.216C107.067 95.552 107.803 95.72 108.603 95.72C109.147 95.72 109.715 95.624 110.307 95.432C110.899 95.24 111.443 94.944 111.939 94.544C112.451 94.128 112.851 93.584 113.139 92.912L115.371 94.184C115.019 95.032 114.467 95.752 113.715 96.344C112.979 96.936 112.147 97.384 111.219 97.688C110.307 97.992 109.403 98.144 108.507 98.144C107.307 98.144 106.211 97.896 105.219 97.4C104.227 96.888 103.371 96.216 102.651 95.384C101.931 94.536 101.371 93.592 100.971 92.552C100.571 91.496 100.371 90.432 100.371 89.36ZM123.138 98.24C122.146 98.24 121.258 98.072 120.474 97.736C119.69 97.384 119.01 96.904 118.434 96.296C117.874 95.688 117.442 95 117.138 94.232C116.834 93.448 116.682 92.616 116.682 91.736C116.682 90.856 116.834 90.024 117.138 89.24C117.442 88.456 117.874 87.768 118.434 87.176C119.01 86.568 119.69 86.096 120.474 85.76C121.274 85.408 122.162 85.232 123.138 85.232C124.114 85.232 124.994 85.408 125.778 85.76C126.578 86.096 127.258 86.568 127.818 87.176C128.394 87.768 128.834 88.456 129.138 89.24C129.442 90.024 129.594 90.856 129.594 91.736C129.594 92.616 129.442 93.448 129.138 94.232C128.834 95 128.394 95.688 127.818 96.296C127.258 96.904 126.578 97.384 125.778 97.736C124.994 98.072 124.114 98.24 123.138 98.24ZM119.394 91.76C119.394 92.56 119.562 93.28 119.898 93.92C120.234 94.56 120.682 95.064 121.242 95.432C121.802 95.8 122.434 95.984 123.138 95.984C123.826 95.984 124.45 95.8 125.01 95.432C125.586 95.048 126.042 94.536 126.378 93.896C126.714 93.24 126.882 92.52 126.882 91.736C126.882 90.936 126.714 90.216 126.378 89.576C126.042 88.936 125.586 88.432 125.01 88.064C124.45 87.68 123.826 87.488 123.138 87.488C122.434 87.488 121.802 87.68 121.242 88.064C120.682 88.448 120.234 88.96 119.898 89.6C119.562 90.224 119.394 90.944 119.394 91.76ZM143.192 98H140.552V90.968C140.552 89.8 140.36 88.944 139.976 88.4C139.608 87.856 139.056 87.584 138.32 87.584C137.808 87.584 137.296 87.712 136.784 87.968C136.288 88.224 135.84 88.576 135.44 89.024C135.04 89.456 134.752 89.96 134.576 90.536V98H131.936V85.448H134.336V87.968C134.656 87.408 135.072 86.928 135.584 86.528C136.112 86.112 136.704 85.792 137.36 85.568C138.016 85.344 138.712 85.232 139.448 85.232C140.2 85.232 140.816 85.368 141.296 85.64C141.792 85.912 142.176 86.288 142.448 86.768C142.736 87.232 142.928 87.776 143.024 88.4C143.136 89.008 143.192 89.656 143.192 90.344V98ZM153.146 97.352C152.922 97.464 152.642 97.584 152.306 97.712C151.97 97.84 151.586 97.952 151.154 98.048C150.738 98.144 150.306 98.192 149.858 98.192C149.314 98.192 148.81 98.096 148.346 97.904C147.882 97.712 147.506 97.408 147.218 96.992C146.946 96.56 146.81 96.008 146.81 95.336V87.488H145.154V85.448H146.81V81.32H149.45V85.448H152.186V87.488H149.45V94.496C149.482 94.928 149.618 95.248 149.858 95.456C150.114 95.664 150.426 95.768 150.794 95.768C151.162 95.768 151.514 95.704 151.85 95.576C152.186 95.448 152.434 95.344 152.594 95.264L153.146 97.352ZM162.031 87.728C161.007 87.744 160.095 87.976 159.295 88.424C158.511 88.872 157.951 89.504 157.615 90.32V98H154.975V85.448H157.423V88.256C157.855 87.392 158.423 86.704 159.127 86.192C159.831 85.664 160.575 85.376 161.359 85.328C161.519 85.328 161.647 85.328 161.743 85.328C161.855 85.328 161.951 85.336 162.031 85.352V87.728ZM163.016 94.328C163.016 93.528 163.24 92.832 163.688 92.24C164.152 91.632 164.784 91.168 165.584 90.848C166.384 90.512 167.312 90.344 168.368 90.344C168.928 90.344 169.496 90.384 170.072 90.464C170.664 90.544 171.184 90.672 171.632 90.848V90.056C171.632 89.176 171.368 88.488 170.84 87.992C170.312 87.496 169.552 87.248 168.56 87.248C167.856 87.248 167.192 87.376 166.568 87.632C165.944 87.872 165.28 88.216 164.576 88.664L163.688 86.888C164.52 86.328 165.352 85.912 166.184 85.64C167.032 85.368 167.92 85.232 168.848 85.232C170.528 85.232 171.848 85.68 172.808 86.576C173.784 87.456 174.272 88.712 174.272 90.344V95.024C174.272 95.328 174.32 95.544 174.416 95.672C174.528 95.8 174.712 95.872 174.968 95.888V98C174.728 98.048 174.512 98.08 174.32 98.096C174.128 98.112 173.968 98.12 173.84 98.12C173.28 98.12 172.856 97.984 172.568 97.712C172.28 97.44 172.112 97.12 172.064 96.752L171.992 96.032C171.448 96.736 170.752 97.28 169.904 97.664C169.056 98.048 168.2 98.24 167.336 98.24C166.504 98.24 165.76 98.072 165.104 97.736C164.448 97.384 163.936 96.912 163.568 96.32C163.2 95.728 163.016 95.064 163.016 94.328ZM171.008 95.096C171.2 94.888 171.352 94.68 171.464 94.472C171.576 94.264 171.632 94.08 171.632 93.92V92.48C171.184 92.304 170.712 92.176 170.216 92.096C169.72 92 169.232 91.952 168.752 91.952C167.792 91.952 167.008 92.144 166.4 92.528C165.808 92.912 165.512 93.44 165.512 94.112C165.512 94.48 165.608 94.832 165.8 95.168C166.008 95.504 166.296 95.776 166.664 95.984C167.048 96.192 167.52 96.296 168.08 96.296C168.656 96.296 169.208 96.184 169.736 95.96C170.264 95.736 170.688 95.448 171.008 95.096ZM181.939 98.24C180.883 98.24 179.883 98.072 178.939 97.736C177.995 97.384 177.187 96.864 176.515 96.176L177.499 94.4C178.219 95.04 178.939 95.504 179.659 95.792C180.395 96.08 181.123 96.224 181.843 96.224C182.579 96.224 183.179 96.088 183.643 95.816C184.107 95.528 184.339 95.112 184.339 94.568C184.339 94.168 184.219 93.872 183.979 93.68C183.739 93.488 183.387 93.32 182.923 93.176C182.475 93.032 181.931 92.872 181.291 92.696C180.395 92.424 179.643 92.144 179.035 91.856C178.427 91.552 177.971 91.184 177.667 90.752C177.363 90.32 177.211 89.768 177.211 89.096C177.211 88.28 177.419 87.584 177.835 87.008C178.251 86.432 178.827 85.992 179.563 85.688C180.315 85.384 181.179 85.232 182.155 85.232C183.067 85.232 183.907 85.376 184.675 85.664C185.459 85.936 186.147 86.368 186.739 86.96L185.611 88.712C185.051 88.2 184.475 87.824 183.883 87.584C183.307 87.344 182.683 87.224 182.011 87.224C181.627 87.224 181.259 87.272 180.907 87.368C180.555 87.448 180.259 87.608 180.019 87.848C179.795 88.072 179.683 88.392 179.683 88.808C179.683 89.144 179.779 89.416 179.971 89.624C180.163 89.832 180.451 90.008 180.835 90.152C181.219 90.296 181.691 90.456 182.251 90.632C183.227 90.92 184.059 91.208 184.747 91.496C185.435 91.768 185.963 92.128 186.331 92.576C186.715 93.008 186.907 93.608 186.907 94.376C186.907 95.592 186.451 96.544 185.539 97.232C184.643 97.904 183.443 98.24 181.939 98.24ZM196.224 97.352C196 97.464 195.72 97.584 195.384 97.712C195.048 97.84 194.664 97.952 194.232 98.048C193.816 98.144 193.384 98.192 192.936 98.192C192.392 98.192 191.888 98.096 191.424 97.904C190.96 97.712 190.584 97.408 190.296 96.992C190.024 96.56 189.888 96.008 189.888 95.336V87.488H188.232V85.448H189.888V81.32H192.528V85.448H195.264V87.488H192.528V94.496C192.56 94.928 192.696 95.248 192.936 95.456C193.192 95.664 193.504 95.768 193.872 95.768C194.24 95.768 194.592 95.704 194.928 95.576C195.264 95.448 195.512 95.344 195.672 95.264L196.224 97.352Z" fill="white"/>
</svg>
