<svg width="86" height="48" viewBox="0 0 86 48" fill="none" xmlns="http://www.w3.org/2000/svg">
<g id="On/Off">
<path id="Vector" d="M61.8125 0H24.1875C17.7726 0 11.6204 2.52856 7.08435 7.02944C2.54832 11.5303 0 17.6348 0 24C0 30.3652 2.54832 36.4697 7.08435 40.9706C11.6204 45.4714 17.7726 48 24.1875 48H61.8125C68.2274 48 74.3796 45.4714 78.9156 40.9706C83.4517 36.4697 86 30.3652 86 24C86 17.6348 83.4517 11.5303 78.9156 7.02944C74.3796 2.52856 68.2274 0 61.8125 0ZM61.8125 38.3333C58.9555 38.3333 56.1626 37.4927 53.7871 35.9177C51.4116 34.3428 49.5601 32.1042 48.4668 29.4851C47.3734 26.8661 47.0874 23.9841 47.6447 21.2037C48.2021 18.4233 49.5779 15.8694 51.5981 13.8648C53.6183 11.8602 56.1922 10.4951 58.9944 9.94208C61.7965 9.38902 64.7009 9.67287 67.3405 10.7577C69.98 11.8426 72.2361 13.6797 73.8233 16.0368C75.4106 18.3939 76.2578 21.1651 76.2578 24C76.2605 25.883 75.8886 27.7481 75.1636 29.4882C74.4386 31.2284 73.3747 32.8096 72.0328 34.1411C70.6909 35.4726 69.0974 36.5283 67.3436 37.2476C65.5898 37.967 63.7102 38.336 61.8125 38.3333Z" fill="#191919"/>
</g>
</svg>
