<svg width="86" height="48" viewBox="0 0 86 48" fill="none" xmlns="http://www.w3.org/2000/svg">
<path d="M24.1875 0H61.8125C68.2274 0 74.3796 2.52856 78.9156 7.02944C83.4517 11.5303 86 17.6348 86 24C86 30.3652 83.4517 36.4697 78.9156 40.9706C74.3796 45.4714 68.2274 48 61.8125 48H24.1875C17.7726 48 11.6204 45.4714 7.08436 40.9706C2.54832 36.4697 0 30.3652 0 24C0 17.6348 2.54832 11.5303 7.08436 7.02944C11.6204 2.52856 17.7726 0 24.1875 0ZM24.1875 38.3333C27.0445 38.3333 29.8374 37.4927 32.2129 35.9177C34.5884 34.3428 36.4399 32.1042 37.5332 29.4851C38.6266 26.8661 38.9126 23.9841 38.3553 21.2037C37.7979 18.4233 36.4221 15.8694 34.4019 13.8648C32.3817 11.8602 29.8078 10.4951 27.0056 9.94208C24.2035 9.38902 21.2991 9.67287 18.6595 10.7577C16.02 11.8426 13.7639 13.6797 12.1767 16.0368C10.5894 18.3939 9.74219 21.1651 9.74219 24C9.73953 25.883 10.1114 27.7481 10.8364 29.4882C11.5614 31.2284 12.6253 32.8096 13.9672 34.1411C15.3091 35.4726 16.9026 36.5283 18.6564 37.2476C20.4102 37.967 22.2898 38.336 24.1875 38.3333Z" fill="#FB5E3C"/>
</svg>
