<svg width="296" height="120" viewBox="0 0 296 120" fill="none" xmlns="http://www.w3.org/2000/svg">
<rect width="296" height="120" rx="20" fill="#D5D5D5"/>
<path d="M143.722 33.3333C143.722 32.5049 143.051 31.8333 142.222 31.8333C141.394 31.8333 140.722 32.5049 140.722 33.3333V50.6667C140.722 51.4951 141.394 52.1667 142.222 52.1667C143.051 52.1667 143.722 51.4951 143.722 50.6667V33.3333ZM155.278 33.3333C155.278 32.5049 154.606 31.8333 153.778 31.8333C152.949 31.8333 152.278 32.5049 152.278 33.3333V50.6667C152.278 51.4951 152.949 52.1667 153.778 52.1667C154.606 52.1667 155.278 51.4951 155.278 50.6667V33.3333ZM172.5 42C172.5 45.2174 171.866 48.4033 170.635 51.3757C169.404 54.3482 167.599 57.0491 165.324 59.3241C163.049 61.5991 160.348 63.4038 157.376 64.6351C154.403 65.8663 151.217 66.5 148 66.5C144.783 66.5 141.597 65.8663 138.624 64.6351C135.652 63.4038 132.951 61.5991 130.676 59.3241C128.401 57.0491 126.596 54.3482 125.365 51.3757C124.134 48.4033 123.5 45.2174 123.5 42C123.5 35.5022 126.081 29.2705 130.676 24.6759C135.271 20.0812 141.502 17.5 148 17.5C154.498 17.5 160.729 20.0812 165.324 24.6759C169.919 29.2705 172.5 35.5022 172.5 42Z" stroke="black" stroke-width="3" stroke-linecap="round" stroke-linejoin="round"/>
<path d="M55.1036 98V80.96H62.2556C63.0236 80.96 63.7276 81.12 64.3676 81.44C65.0076 81.76 65.5676 82.184 66.0476 82.712C66.5276 83.24 66.8956 83.832 67.1516 84.488C67.4076 85.144 67.5356 85.816 67.5356 86.504C67.5356 87.448 67.3196 88.352 66.8876 89.216C66.4716 90.064 65.8716 90.752 65.0876 91.28C64.3196 91.808 63.4236 92.072 62.3996 92.072H57.7916V98H55.1036ZM57.7916 89.696H62.2316C62.7436 89.696 63.1916 89.56 63.5756 89.288C63.9596 89 64.2556 88.616 64.4636 88.136C64.6876 87.656 64.7996 87.112 64.7996 86.504C64.7996 85.88 64.6716 85.328 64.4156 84.848C64.1596 84.368 63.8236 84 63.4076 83.744C63.0076 83.472 62.5676 83.336 62.0876 83.336H57.7916V89.696ZM68.6681 94.328C68.6681 93.528 68.8921 92.832 69.3401 92.24C69.8041 91.632 70.4361 91.168 71.2361 90.848C72.0361 90.512 72.9641 90.344 74.0201 90.344C74.5801 90.344 75.1481 90.384 75.7241 90.464C76.3161 90.544 76.8361 90.672 77.2841 90.848V90.056C77.2841 89.176 77.0201 88.488 76.4921 87.992C75.9641 87.496 75.2041 87.248 74.2121 87.248C73.5081 87.248 72.8441 87.376 72.2201 87.632C71.5961 87.872 70.9321 88.216 70.2281 88.664L69.3401 86.888C70.1721 86.328 71.0041 85.912 71.8361 85.64C72.6841 85.368 73.5721 85.232 74.5001 85.232C76.1801 85.232 77.5001 85.68 78.4601 86.576C79.4361 87.456 79.9241 88.712 79.9241 90.344V95.024C79.9241 95.328 79.9721 95.544 80.0681 95.672C80.1801 95.8 80.3641 95.872 80.6201 95.888V98C80.3801 98.048 80.1641 98.08 79.9721 98.096C79.7801 98.112 79.6201 98.12 79.4921 98.12C78.9321 98.12 78.5081 97.984 78.2201 97.712C77.9321 97.44 77.7641 97.12 77.7161 96.752L77.6441 96.032C77.1001 96.736 76.4041 97.28 75.5561 97.664C74.7081 98.048 73.8521 98.24 72.9881 98.24C72.1561 98.24 71.4121 98.072 70.7561 97.736C70.1001 97.384 69.5881 96.912 69.2201 96.32C68.8521 95.728 68.6681 95.064 68.6681 94.328ZM76.6601 95.096C76.8521 94.888 77.0041 94.68 77.1161 94.472C77.2281 94.264 77.2841 94.08 77.2841 93.92V92.48C76.8361 92.304 76.3641 92.176 75.8681 92.096C75.3721 92 74.8841 91.952 74.4041 91.952C73.4441 91.952 72.6601 92.144 72.0521 92.528C71.4601 92.912 71.1641 93.44 71.1641 94.112C71.1641 94.48 71.2601 94.832 71.4521 95.168C71.6601 95.504 71.9481 95.776 72.3161 95.984C72.7001 96.192 73.1721 96.296 73.7321 96.296C74.3081 96.296 74.8601 96.184 75.3881 95.96C75.9161 95.736 76.3401 95.448 76.6601 95.096ZM83.007 93.128V85.448H85.647V92.6C85.647 93.72 85.847 94.568 86.247 95.144C86.663 95.704 87.263 95.984 88.047 95.984C88.543 95.984 89.023 95.88 89.487 95.672C89.967 95.464 90.399 95.16 90.783 94.76C91.183 94.344 91.503 93.848 91.743 93.272V85.448H94.383V95.024C94.383 95.328 94.439 95.544 94.551 95.672C94.663 95.8 94.847 95.872 95.103 95.888V98C94.831 98.048 94.607 98.08 94.431 98.096C94.255 98.112 94.087 98.12 93.927 98.12C93.447 98.12 93.047 97.992 92.727 97.736C92.407 97.464 92.223 97.12 92.175 96.704L92.127 95.456C91.567 96.368 90.839 97.064 89.943 97.544C89.047 98.008 88.063 98.24 86.991 98.24C85.679 98.24 84.687 97.808 84.015 96.944C83.343 96.08 83.007 94.808 83.007 93.128ZM102.216 98.24C101.16 98.24 100.16 98.072 99.216 97.736C98.272 97.384 97.464 96.864 96.792 96.176L97.776 94.4C98.496 95.04 99.216 95.504 99.936 95.792C100.672 96.08 101.4 96.224 102.12 96.224C102.856 96.224 103.456 96.088 103.92 95.816C104.384 95.528 104.616 95.112 104.616 94.568C104.616 94.168 104.496 93.872 104.256 93.68C104.016 93.488 103.664 93.32 103.2 93.176C102.752 93.032 102.208 92.872 101.568 92.696C100.672 92.424 99.92 92.144 99.312 91.856C98.704 91.552 98.248 91.184 97.944 90.752C97.64 90.32 97.488 89.768 97.488 89.096C97.488 88.28 97.696 87.584 98.112 87.008C98.528 86.432 99.104 85.992 99.84 85.688C100.592 85.384 101.456 85.232 102.432 85.232C103.344 85.232 104.184 85.376 104.952 85.664C105.736 85.936 106.424 86.368 107.016 86.96L105.888 88.712C105.328 88.2 104.752 87.824 104.16 87.584C103.584 87.344 102.96 87.224 102.288 87.224C101.904 87.224 101.536 87.272 101.184 87.368C100.832 87.448 100.536 87.608 100.296 87.848C100.072 88.072 99.96 88.392 99.96 88.808C99.96 89.144 100.056 89.416 100.248 89.624C100.44 89.832 100.728 90.008 101.112 90.152C101.496 90.296 101.968 90.456 102.528 90.632C103.504 90.92 104.336 91.208 105.024 91.496C105.712 91.768 106.24 92.128 106.608 92.576C106.992 93.008 107.184 93.608 107.184 94.376C107.184 95.592 106.728 96.544 105.816 97.232C104.92 97.904 103.72 98.24 102.216 98.24ZM115.229 98.24C114.253 98.24 113.365 98.072 112.565 97.736C111.781 97.384 111.101 96.912 110.525 96.32C109.949 95.712 109.501 95.024 109.181 94.256C108.877 93.472 108.725 92.64 108.725 91.76C108.725 90.576 108.997 89.496 109.541 88.52C110.085 87.528 110.845 86.736 111.821 86.144C112.797 85.536 113.941 85.232 115.253 85.232C116.565 85.232 117.693 85.536 118.637 86.144C119.597 86.736 120.341 87.52 120.869 88.496C121.397 89.472 121.661 90.52 121.661 91.64C121.661 91.832 121.653 92.016 121.637 92.192C121.621 92.352 121.605 92.488 121.589 92.6H111.533C111.581 93.336 111.781 93.984 112.133 94.544C112.501 95.088 112.965 95.52 113.525 95.84C114.085 96.144 114.685 96.296 115.325 96.296C116.029 96.296 116.693 96.12 117.317 95.768C117.957 95.416 118.389 94.952 118.613 94.376L120.869 95.024C120.597 95.632 120.181 96.184 119.621 96.68C119.077 97.16 118.429 97.544 117.677 97.832C116.925 98.104 116.109 98.24 115.229 98.24ZM111.461 90.848H119.045C118.997 90.128 118.789 89.496 118.421 88.952C118.069 88.392 117.613 87.96 117.053 87.656C116.509 87.336 115.901 87.176 115.229 87.176C114.573 87.176 113.965 87.336 113.405 87.656C112.861 87.96 112.413 88.392 112.061 88.952C111.709 89.496 111.509 90.128 111.461 90.848ZM134.25 80.96H136.794L143.418 98H140.586L138.786 93.368H132.21L130.434 98H127.578L134.25 80.96ZM138.258 91.376L135.522 83.912L132.69 91.376H138.258ZM156.445 98H153.805V90.968C153.805 89.8 153.613 88.944 153.229 88.4C152.861 87.856 152.309 87.584 151.573 87.584C151.061 87.584 150.549 87.712 150.037 87.968C149.541 88.224 149.093 88.576 148.693 89.024C148.293 89.456 148.005 89.96 147.829 90.536V98H145.189V85.448H147.589V87.968C147.909 87.408 148.325 86.928 148.837 86.528C149.365 86.112 149.957 85.792 150.613 85.568C151.269 85.344 151.965 85.232 152.701 85.232C153.453 85.232 154.069 85.368 154.549 85.64C155.045 85.912 155.429 86.288 155.701 86.768C155.989 87.232 156.181 87.776 156.277 88.4C156.389 89.008 156.445 89.656 156.445 90.344V98ZM159.51 98V85.448H162.15V98H159.51ZM159.51 83.384V80.48H162.15V83.384H159.51ZM184.522 98H181.882V90.968C181.882 89.8 181.69 88.944 181.306 88.4C180.922 87.856 180.362 87.584 179.626 87.584C178.89 87.584 178.202 87.864 177.562 88.424C176.938 88.968 176.498 89.68 176.242 90.56V98H173.602V90.968C173.602 89.8 173.41 88.944 173.026 88.4C172.642 87.856 172.09 87.584 171.37 87.584C170.634 87.584 169.946 87.856 169.306 88.4C168.682 88.944 168.234 89.656 167.962 90.536V98H165.322V85.448H167.722V87.968C168.218 87.088 168.866 86.416 169.666 85.952C170.482 85.472 171.41 85.232 172.45 85.232C173.49 85.232 174.306 85.504 174.898 86.048C175.506 86.592 175.882 87.272 176.026 88.088C176.57 87.16 177.234 86.456 178.018 85.976C178.818 85.48 179.73 85.232 180.754 85.232C181.49 85.232 182.106 85.368 182.602 85.64C183.098 85.912 183.482 86.288 183.754 86.768C184.026 87.232 184.218 87.776 184.33 88.4C184.458 89.008 184.522 89.656 184.522 90.344V98ZM186.652 94.328C186.652 93.528 186.876 92.832 187.324 92.24C187.788 91.632 188.42 91.168 189.22 90.848C190.02 90.512 190.948 90.344 192.004 90.344C192.564 90.344 193.132 90.384 193.708 90.464C194.3 90.544 194.82 90.672 195.268 90.848V90.056C195.268 89.176 195.004 88.488 194.476 87.992C193.948 87.496 193.188 87.248 192.196 87.248C191.492 87.248 190.828 87.376 190.204 87.632C189.58 87.872 188.916 88.216 188.212 88.664L187.324 86.888C188.156 86.328 188.988 85.912 189.82 85.64C190.668 85.368 191.556 85.232 192.484 85.232C194.164 85.232 195.484 85.68 196.444 86.576C197.42 87.456 197.908 88.712 197.908 90.344V95.024C197.908 95.328 197.956 95.544 198.052 95.672C198.164 95.8 198.348 95.872 198.604 95.888V98C198.364 98.048 198.148 98.08 197.956 98.096C197.764 98.112 197.604 98.12 197.476 98.12C196.916 98.12 196.492 97.984 196.204 97.712C195.916 97.44 195.748 97.12 195.7 96.752L195.628 96.032C195.084 96.736 194.388 97.28 193.54 97.664C192.692 98.048 191.836 98.24 190.972 98.24C190.14 98.24 189.396 98.072 188.74 97.736C188.084 97.384 187.572 96.912 187.204 96.32C186.836 95.728 186.652 95.064 186.652 94.328ZM194.644 95.096C194.836 94.888 194.988 94.68 195.1 94.472C195.212 94.264 195.268 94.08 195.268 93.92V92.48C194.82 92.304 194.348 92.176 193.852 92.096C193.356 92 192.868 91.952 192.388 91.952C191.428 91.952 190.644 92.144 190.036 92.528C189.444 92.912 189.148 93.44 189.148 94.112C189.148 94.48 189.244 94.832 189.436 95.168C189.644 95.504 189.932 95.776 190.3 95.984C190.684 96.192 191.156 96.296 191.716 96.296C192.292 96.296 192.844 96.184 193.372 95.96C193.9 95.736 194.324 95.448 194.644 95.096ZM208.002 97.352C207.778 97.464 207.498 97.584 207.162 97.712C206.826 97.84 206.442 97.952 206.01 98.048C205.594 98.144 205.162 98.192 204.714 98.192C204.17 98.192 203.666 98.096 203.202 97.904C202.738 97.712 202.362 97.408 202.074 96.992C201.802 96.56 201.666 96.008 201.666 95.336V87.488H200.01V85.448H201.666V81.32H204.306V85.448H207.042V87.488H204.306V94.496C204.338 94.928 204.474 95.248 204.714 95.456C204.97 95.664 205.282 95.768 205.65 95.768C206.018 95.768 206.37 95.704 206.706 95.576C207.042 95.448 207.29 95.344 207.45 95.264L208.002 97.352ZM209.83 98V85.448H212.47V98H209.83ZM209.83 83.384V80.48H212.47V83.384H209.83ZM221.283 98.24C220.291 98.24 219.403 98.072 218.619 97.736C217.835 97.384 217.155 96.904 216.579 96.296C216.019 95.688 215.587 95 215.283 94.232C214.979 93.448 214.827 92.616 214.827 91.736C214.827 90.856 214.979 90.024 215.283 89.24C215.587 88.456 216.019 87.768 216.579 87.176C217.155 86.568 217.835 86.096 218.619 85.76C219.419 85.408 220.307 85.232 221.283 85.232C222.259 85.232 223.139 85.408 223.923 85.76C224.723 86.096 225.403 86.568 225.963 87.176C226.539 87.768 226.979 88.456 227.283 89.24C227.587 90.024 227.739 90.856 227.739 91.736C227.739 92.616 227.587 93.448 227.283 94.232C226.979 95 226.539 95.688 225.963 96.296C225.403 96.904 224.723 97.384 223.923 97.736C223.139 98.072 222.259 98.24 221.283 98.24ZM217.539 91.76C217.539 92.56 217.707 93.28 218.043 93.92C218.379 94.56 218.827 95.064 219.387 95.432C219.947 95.8 220.579 95.984 221.283 95.984C221.971 95.984 222.595 95.8 223.155 95.432C223.731 95.048 224.187 94.536 224.523 93.896C224.859 93.24 225.027 92.52 225.027 91.736C225.027 90.936 224.859 90.216 224.523 89.576C224.187 88.936 223.731 88.432 223.155 88.064C222.595 87.68 221.971 87.488 221.283 87.488C220.579 87.488 219.947 87.68 219.387 88.064C218.827 88.448 218.379 88.96 218.043 89.6C217.707 90.224 217.539 90.944 217.539 91.76ZM241.336 98H238.696V90.968C238.696 89.8 238.504 88.944 238.12 88.4C237.752 87.856 237.2 87.584 236.464 87.584C235.952 87.584 235.44 87.712 234.928 87.968C234.432 88.224 233.984 88.576 233.584 89.024C233.184 89.456 232.896 89.96 232.72 90.536V98H230.08V85.448H232.48V87.968C232.8 87.408 233.216 86.928 233.728 86.528C234.256 86.112 234.848 85.792 235.504 85.568C236.16 85.344 236.856 85.232 237.592 85.232C238.344 85.232 238.96 85.368 239.44 85.64C239.936 85.912 240.32 86.288 240.592 86.768C240.88 87.232 241.072 87.776 241.168 88.4C241.28 89.008 241.336 89.656 241.336 90.344V98Z" fill="black"/>
</svg>
