<svg width="296" height="120" viewBox="0 0 296 120" fill="none" xmlns="http://www.w3.org/2000/svg">
<rect width="296" height="120" rx="20" fill="#FBF8F4"/>
<rect x="109.316" y="16" width="78" height="52" rx="20" fill="#191919"/>
<rect x="101.707" y="31.5352" width="92.5854" height="5.4026" rx="2" fill="#191919"/>
<rect x="96" y="36.9375" width="104" height="9.45455" rx="2" fill="#FBF8F4"/>
<rect x="101.707" y="46.3906" width="92.5854" height="6.07792" rx="2" fill="#191919"/>
<path d="M70.4434 98V80.96H77.8594C78.6274 80.96 79.3314 81.12 79.9714 81.44C80.6114 81.76 81.1634 82.184 81.6274 82.712C82.1074 83.24 82.4754 83.832 82.7314 84.488C83.0034 85.144 83.1394 85.816 83.1394 86.504C83.1394 87.256 83.0034 87.976 82.7314 88.664C82.4594 89.352 82.0674 89.944 81.5554 90.44C81.0594 90.936 80.4754 91.296 79.8034 91.52L83.8114 98H80.7874L77.0914 92.072H73.1314V98H70.4434ZM73.1314 89.696H77.8354C78.3314 89.696 78.7714 89.552 79.1554 89.264C79.5394 88.976 79.8434 88.592 80.0674 88.112C80.2914 87.616 80.4034 87.08 80.4034 86.504C80.4034 85.912 80.2754 85.384 80.0194 84.92C79.7634 84.44 79.4274 84.056 79.0114 83.768C78.6114 83.48 78.1714 83.336 77.6914 83.336H73.1314V89.696ZM91.2642 98.24C90.2882 98.24 89.4002 98.072 88.6002 97.736C87.8162 97.384 87.1362 96.912 86.5602 96.32C85.9842 95.712 85.5362 95.024 85.2162 94.256C84.9122 93.472 84.7602 92.64 84.7602 91.76C84.7602 90.576 85.0322 89.496 85.5762 88.52C86.1202 87.528 86.8802 86.736 87.8562 86.144C88.8322 85.536 89.9762 85.232 91.2882 85.232C92.6002 85.232 93.7282 85.536 94.6722 86.144C95.6322 86.736 96.3762 87.52 96.9042 88.496C97.4322 89.472 97.6962 90.52 97.6962 91.64C97.6962 91.832 97.6882 92.016 97.6722 92.192C97.6562 92.352 97.6402 92.488 97.6242 92.6H87.5682C87.6162 93.336 87.8162 93.984 88.1682 94.544C88.5362 95.088 89.0002 95.52 89.5602 95.84C90.1202 96.144 90.7202 96.296 91.3602 96.296C92.0642 96.296 92.7282 96.12 93.3522 95.768C93.9922 95.416 94.4242 94.952 94.6482 94.376L96.9042 95.024C96.6322 95.632 96.2162 96.184 95.6562 96.68C95.1122 97.16 94.4642 97.544 93.7122 97.832C92.9602 98.104 92.1442 98.24 91.2642 98.24ZM87.4962 90.848H95.0802C95.0322 90.128 94.8242 89.496 94.4562 88.952C94.1042 88.392 93.6482 87.96 93.0882 87.656C92.5442 87.336 91.9362 87.176 91.2642 87.176C90.6082 87.176 90.0002 87.336 89.4402 87.656C88.8962 87.96 88.4482 88.392 88.0962 88.952C87.7442 89.496 87.5442 90.128 87.4962 90.848ZM98.9376 94.328C98.9376 93.528 99.1616 92.832 99.6096 92.24C100.074 91.632 100.706 91.168 101.506 90.848C102.306 90.512 103.234 90.344 104.29 90.344C104.85 90.344 105.418 90.384 105.994 90.464C106.586 90.544 107.106 90.672 107.554 90.848V90.056C107.554 89.176 107.29 88.488 106.762 87.992C106.234 87.496 105.474 87.248 104.482 87.248C103.778 87.248 103.114 87.376 102.49 87.632C101.866 87.872 101.202 88.216 100.498 88.664L99.6096 86.888C100.442 86.328 101.274 85.912 102.106 85.64C102.954 85.368 103.842 85.232 104.77 85.232C106.45 85.232 107.77 85.68 108.73 86.576C109.706 87.456 110.194 88.712 110.194 90.344V95.024C110.194 95.328 110.242 95.544 110.338 95.672C110.45 95.8 110.634 95.872 110.89 95.888V98C110.65 98.048 110.434 98.08 110.242 98.096C110.05 98.112 109.89 98.12 109.762 98.12C109.202 98.12 108.778 97.984 108.49 97.712C108.202 97.44 108.034 97.12 107.986 96.752L107.914 96.032C107.37 96.736 106.674 97.28 105.826 97.664C104.978 98.048 104.122 98.24 103.258 98.24C102.426 98.24 101.682 98.072 101.026 97.736C100.37 97.384 99.8576 96.912 99.4896 96.32C99.1216 95.728 98.9376 95.064 98.9376 94.328ZM106.93 95.096C107.122 94.888 107.274 94.68 107.386 94.472C107.498 94.264 107.554 94.08 107.554 93.92V92.48C107.106 92.304 106.634 92.176 106.138 92.096C105.642 92 105.154 91.952 104.674 91.952C103.714 91.952 102.93 92.144 102.322 92.528C101.73 92.912 101.434 93.44 101.434 94.112C101.434 94.48 101.53 94.832 101.722 95.168C101.93 95.504 102.218 95.776 102.586 95.984C102.97 96.192 103.442 96.296 104.002 96.296C104.578 96.296 105.13 96.184 105.658 95.96C106.186 95.736 106.61 95.448 106.93 95.096ZM112.604 91.736C112.604 90.536 112.845 89.448 113.325 88.472C113.821 87.48 114.493 86.696 115.34 86.12C116.189 85.528 117.165 85.232 118.269 85.232C119.229 85.232 120.093 85.48 120.861 85.976C121.645 86.472 122.253 87.088 122.685 87.824V80.48H125.325V95.024C125.325 95.328 125.381 95.544 125.493 95.672C125.605 95.8 125.789 95.872 126.045 95.888V98C125.549 98.08 125.165 98.12 124.893 98.12C124.397 98.12 123.973 97.976 123.621 97.688C123.285 97.4 123.109 97.056 123.093 96.656L123.069 95.72C122.589 96.52 121.941 97.144 121.125 97.592C120.309 98.024 119.461 98.24 118.581 98.24C117.717 98.24 116.917 98.072 116.181 97.736C115.461 97.4 114.829 96.928 114.285 96.32C113.757 95.712 113.341 95.016 113.037 94.232C112.749 93.448 112.604 92.616 112.604 91.736ZM122.685 93.488V90.2C122.509 89.688 122.221 89.232 121.821 88.832C121.437 88.416 120.997 88.088 120.501 87.848C120.021 87.608 119.541 87.488 119.061 87.488C118.501 87.488 117.989 87.608 117.525 87.848C117.077 88.088 116.685 88.408 116.349 88.808C116.029 89.208 115.781 89.664 115.605 90.176C115.429 90.688 115.34 91.224 115.34 91.784C115.34 92.36 115.437 92.904 115.629 93.416C115.821 93.912 116.093 94.36 116.445 94.76C116.813 95.144 117.229 95.448 117.693 95.672C118.173 95.88 118.693 95.984 119.253 95.984C119.605 95.984 119.957 95.92 120.309 95.792C120.677 95.664 121.021 95.488 121.341 95.264C121.677 95.04 121.957 94.776 122.181 94.472C122.421 94.168 122.589 93.84 122.685 93.488ZM128.678 98V85.448H131.318V98H128.678ZM128.678 83.384V80.48H131.318V83.384H128.678ZM145.746 98H143.106V90.968C143.106 89.8 142.914 88.944 142.53 88.4C142.162 87.856 141.61 87.584 140.874 87.584C140.362 87.584 139.85 87.712 139.338 87.968C138.842 88.224 138.394 88.576 137.994 89.024C137.594 89.456 137.306 89.96 137.13 90.536V98H134.49V85.448H136.89V87.968C137.21 87.408 137.626 86.928 138.138 86.528C138.666 86.112 139.258 85.792 139.914 85.568C140.57 85.344 141.266 85.232 142.002 85.232C142.754 85.232 143.37 85.368 143.85 85.64C144.346 85.912 144.73 86.288 145.002 86.768C145.29 87.232 145.482 87.776 145.578 88.4C145.69 89.008 145.746 89.656 145.746 90.344V98ZM153.779 98.12C152.931 98.12 152.155 97.952 151.451 97.616C150.747 97.264 150.139 96.792 149.627 96.2C149.131 95.608 148.739 94.928 148.451 94.16C148.179 93.392 148.043 92.584 148.043 91.736C148.043 90.84 148.187 90 148.475 89.216C148.763 88.432 149.163 87.744 149.675 87.152C150.203 86.544 150.819 86.072 151.523 85.736C152.227 85.4 153.011 85.232 153.875 85.232C154.883 85.232 155.763 85.472 156.515 85.952C157.283 86.432 157.915 87.056 158.411 87.824V85.448H160.739V97.64C160.739 98.856 160.443 99.888 159.851 100.736C159.275 101.584 158.483 102.232 157.475 102.68C156.467 103.128 155.331 103.352 154.067 103.352C152.675 103.352 151.523 103.112 150.611 102.632C149.699 102.152 148.923 101.496 148.283 100.664L149.771 99.272C150.251 99.944 150.867 100.456 151.619 100.808C152.387 101.16 153.203 101.336 154.067 101.336C154.787 101.336 155.451 101.2 156.059 100.928C156.683 100.672 157.179 100.264 157.547 99.704C157.915 99.16 158.099 98.472 158.099 97.64V95.72C157.651 96.472 157.035 97.064 156.251 97.496C155.467 97.912 154.643 98.12 153.779 98.12ZM154.643 95.984C155.043 95.984 155.427 95.92 155.795 95.792C156.163 95.648 156.499 95.464 156.803 95.24C157.123 95 157.395 94.736 157.619 94.448C157.843 94.144 158.003 93.824 158.099 93.488V90.2C157.891 89.656 157.595 89.184 157.211 88.784C156.827 88.368 156.395 88.048 155.915 87.824C155.435 87.6 154.947 87.488 154.451 87.488C153.875 87.488 153.355 87.616 152.891 87.872C152.443 88.112 152.059 88.44 151.739 88.856C151.419 89.256 151.171 89.712 150.995 90.224C150.819 90.736 150.731 91.264 150.731 91.808C150.731 92.384 150.827 92.92 151.019 93.416C151.227 93.912 151.507 94.36 151.859 94.76C152.211 95.144 152.627 95.448 153.107 95.672C153.587 95.88 154.099 95.984 154.643 95.984ZM184.498 98V85.856L179.482 95.072H177.898L172.858 85.856V98H170.17V80.96H173.05L178.69 91.376L184.33 80.96H187.21V98H184.498ZM189.664 94.328C189.664 93.528 189.888 92.832 190.336 92.24C190.8 91.632 191.432 91.168 192.232 90.848C193.032 90.512 193.96 90.344 195.016 90.344C195.576 90.344 196.144 90.384 196.72 90.464C197.312 90.544 197.832 90.672 198.28 90.848V90.056C198.28 89.176 198.016 88.488 197.488 87.992C196.96 87.496 196.2 87.248 195.208 87.248C194.504 87.248 193.84 87.376 193.216 87.632C192.592 87.872 191.928 88.216 191.224 88.664L190.336 86.888C191.168 86.328 192 85.912 192.832 85.64C193.68 85.368 194.568 85.232 195.496 85.232C197.176 85.232 198.496 85.68 199.456 86.576C200.432 87.456 200.92 88.712 200.92 90.344V95.024C200.92 95.328 200.968 95.544 201.064 95.672C201.176 95.8 201.36 95.872 201.616 95.888V98C201.376 98.048 201.16 98.08 200.968 98.096C200.776 98.112 200.616 98.12 200.488 98.12C199.928 98.12 199.504 97.984 199.216 97.712C198.928 97.44 198.76 97.12 198.712 96.752L198.64 96.032C198.096 96.736 197.4 97.28 196.552 97.664C195.704 98.048 194.848 98.24 193.984 98.24C193.152 98.24 192.408 98.072 191.752 97.736C191.096 97.384 190.584 96.912 190.216 96.32C189.848 95.728 189.664 95.064 189.664 94.328ZM197.656 95.096C197.848 94.888 198 94.68 198.112 94.472C198.224 94.264 198.28 94.08 198.28 93.92V92.48C197.832 92.304 197.36 92.176 196.864 92.096C196.368 92 195.88 91.952 195.4 91.952C194.44 91.952 193.656 92.144 193.048 92.528C192.456 92.912 192.16 93.44 192.16 94.112C192.16 94.48 192.256 94.832 192.448 95.168C192.656 95.504 192.944 95.776 193.312 95.984C193.696 96.192 194.168 96.296 194.728 96.296C195.304 96.296 195.856 96.184 196.384 95.96C196.912 95.736 197.336 95.448 197.656 95.096ZM208.587 98.24C207.531 98.24 206.531 98.072 205.587 97.736C204.643 97.384 203.835 96.864 203.163 96.176L204.147 94.4C204.867 95.04 205.587 95.504 206.307 95.792C207.043 96.08 207.771 96.224 208.491 96.224C209.227 96.224 209.827 96.088 210.291 95.816C210.755 95.528 210.987 95.112 210.987 94.568C210.987 94.168 210.867 93.872 210.627 93.68C210.387 93.488 210.035 93.32 209.571 93.176C209.123 93.032 208.579 92.872 207.939 92.696C207.043 92.424 206.291 92.144 205.683 91.856C205.075 91.552 204.619 91.184 204.315 90.752C204.011 90.32 203.859 89.768 203.859 89.096C203.859 88.28 204.067 87.584 204.483 87.008C204.899 86.432 205.475 85.992 206.211 85.688C206.963 85.384 207.827 85.232 208.803 85.232C209.715 85.232 210.555 85.376 211.323 85.664C212.107 85.936 212.795 86.368 213.387 86.96L212.259 88.712C211.699 88.2 211.123 87.824 210.531 87.584C209.955 87.344 209.331 87.224 208.659 87.224C208.275 87.224 207.907 87.272 207.555 87.368C207.203 87.448 206.907 87.608 206.667 87.848C206.443 88.072 206.331 88.392 206.331 88.808C206.331 89.144 206.427 89.416 206.619 89.624C206.811 89.832 207.099 90.008 207.483 90.152C207.867 90.296 208.339 90.456 208.899 90.632C209.875 90.92 210.707 91.208 211.395 91.496C212.083 91.768 212.611 92.128 212.979 92.576C213.363 93.008 213.555 93.608 213.555 94.376C213.555 95.592 213.099 96.544 212.187 97.232C211.291 97.904 210.091 98.24 208.587 98.24ZM224.648 98L220.616 92.216L218.552 94.184V98H215.912V80.48H218.552V91.52L224.36 85.472H227.192L222.32 90.728L227.456 98H224.648Z" fill="#191919"/>
</svg>
