<svg width="296" height="120" viewBox="0 0 296 120" fill="none" xmlns="http://www.w3.org/2000/svg">
<rect width="296" height="120" rx="20" fill="#FB5E3C"/>
<path d="M116 37.706C116 36.2569 117.281 35.0822 118.862 35.0822C120.442 35.0822 121.724 36.2569 121.724 37.706V46.2932C121.724 47.7423 120.442 48.917 118.862 48.917C117.281 48.917 116 47.7423 116 46.2932V37.706Z" fill="white"/>
<path d="M125.887 28.1649C125.887 26.7158 127.168 25.5411 128.748 25.5411C130.329 25.5411 131.61 26.7158 131.61 28.1649V55.8347C131.61 57.2838 130.329 58.4585 128.748 58.4585C127.168 58.4585 125.887 57.2838 125.887 55.8347V28.1649Z" fill="white"/>
<path d="M135.772 34.8433C135.772 33.3942 137.053 32.2194 138.634 32.2194C140.214 32.2194 141.496 33.3942 141.496 34.8433V49.1552C141.496 50.6043 140.214 51.7791 138.634 51.7791C137.053 51.7791 135.772 50.6043 135.772 49.1552V34.8433Z" fill="white"/>
<path d="M145.658 18.6239C145.658 17.1747 146.939 16 148.52 16C150.1 16 151.381 17.1747 151.381 18.6239V65.3761C151.381 66.8253 150.1 68 148.52 68C146.939 68 145.658 66.8253 145.658 65.3761V18.6239Z" fill="white"/>
<path d="M155.544 34.8433C155.544 33.3942 156.826 32.2194 158.406 32.2194C159.987 32.2194 161.268 33.3942 161.268 34.8433V49.1552C161.268 50.6043 159.987 51.7791 158.406 51.7791C156.826 51.7791 155.544 50.6043 155.544 49.1552V34.8433Z" fill="white"/>
<path d="M165.43 28.1649C165.43 26.7158 166.711 25.5411 168.292 25.5411C169.872 25.5411 171.154 26.7158 171.154 28.1649V55.8347C171.154 57.2838 169.872 58.4585 168.292 58.4585C166.711 58.4585 165.43 57.2838 165.43 55.8347V28.1649Z" fill="white"/>
<path d="M174.276 37.706C174.276 36.2569 175.558 35.0822 177.138 35.0822C178.719 35.0822 180 36.2569 180 37.706V46.2932C180 47.7423 178.719 48.917 177.138 48.917C175.558 48.917 174.276 47.7423 174.276 46.2932V37.706Z" fill="white"/>
<path d="M76.2812 84.968C76.1213 84.792 75.8893 84.608 75.5853 84.416C75.2813 84.208 74.9213 84.016 74.5053 83.84C74.0893 83.664 73.6413 83.52 73.1613 83.408C72.6813 83.296 72.1853 83.24 71.6733 83.24C70.5533 83.24 69.7213 83.448 69.1773 83.864C68.6333 84.28 68.3613 84.856 68.3613 85.592C68.3613 86.136 68.5133 86.568 68.8173 86.888C69.1213 87.192 69.5853 87.448 70.2093 87.656C70.8333 87.864 71.6173 88.088 72.5613 88.328C73.7133 88.6 74.7133 88.928 75.5613 89.312C76.4093 89.68 77.0573 90.176 77.5052 90.8C77.9533 91.424 78.1773 92.248 78.1773 93.272C78.1773 94.136 78.0173 94.88 77.6973 95.504C77.3773 96.128 76.9293 96.64 76.3533 97.04C75.7773 97.424 75.1133 97.712 74.3613 97.904C73.6093 98.08 72.8013 98.168 71.9373 98.168C71.0893 98.168 70.2413 98.08 69.3933 97.904C68.5613 97.728 67.7613 97.472 66.9933 97.136C66.2413 96.784 65.5452 96.36 64.9053 95.864L66.1293 93.56C66.3373 93.768 66.6333 94 67.0173 94.256C67.4173 94.496 67.8733 94.728 68.3853 94.952C68.9133 95.176 69.4813 95.368 70.0893 95.528C70.7133 95.672 71.3453 95.744 71.9853 95.744C73.0573 95.744 73.8733 95.56 74.4333 95.192C75.0093 94.808 75.2973 94.264 75.2973 93.56C75.2973 92.984 75.1133 92.528 74.7453 92.192C74.3773 91.84 73.8413 91.544 73.1373 91.304C72.4333 91.064 71.5933 90.824 70.6172 90.584C69.4973 90.28 68.5613 89.952 67.8092 89.6C67.0573 89.232 66.4893 88.768 66.1053 88.208C65.7373 87.632 65.5533 86.904 65.5533 86.024C65.5533 84.904 65.8253 83.96 66.3693 83.192C66.9133 82.408 67.6493 81.824 68.5773 81.44C69.5213 81.04 70.5773 80.84 71.7453 80.84C72.5133 80.84 73.2413 80.928 73.9293 81.104C74.6173 81.264 75.2573 81.488 75.8493 81.776C76.4573 82.064 77.0093 82.392 77.5052 82.76L76.2812 84.968ZM86.2251 98.24C85.2491 98.24 84.3611 98.072 83.5611 97.736C82.7771 97.384 82.0971 96.904 81.5211 96.296C80.9451 95.688 80.4971 94.992 80.1771 94.208C79.8731 93.424 79.7211 92.592 79.7211 91.712C79.7211 90.528 79.9851 89.448 80.5131 88.472C81.0571 87.496 81.8091 86.712 82.7691 86.12C83.7451 85.528 84.8971 85.232 86.2251 85.232C87.5051 85.232 88.6171 85.52 89.5611 86.096C90.5211 86.656 91.2251 87.408 91.6731 88.352L89.1051 89.168C88.8171 88.64 88.4091 88.232 87.8811 87.944C87.3691 87.64 86.8011 87.488 86.1771 87.488C85.4731 87.488 84.8331 87.672 84.2571 88.04C83.6971 88.392 83.2491 88.888 82.9131 89.528C82.5931 90.152 82.4331 90.88 82.4331 91.712C82.4331 92.512 82.6011 93.24 82.9371 93.896C83.2731 94.536 83.7211 95.048 84.2811 95.432C84.8571 95.8 85.4971 95.984 86.2011 95.984C86.6331 95.984 87.0491 95.912 87.4491 95.768C87.8651 95.608 88.2251 95.4 88.5291 95.144C88.8331 94.872 89.0491 94.576 89.1771 94.256L91.7691 95.024C91.4971 95.648 91.0891 96.2 90.5451 96.68C90.0171 97.16 89.3851 97.544 88.6491 97.832C87.9291 98.104 87.1211 98.24 86.2251 98.24ZM100.999 87.728C99.9754 87.744 99.0634 87.976 98.2634 88.424C97.4794 88.872 96.9194 89.504 96.5834 90.32V98H93.9434V85.448H96.3914V88.256C96.8234 87.392 97.3914 86.704 98.0954 86.192C98.7994 85.664 99.5434 85.376 100.327 85.328C100.487 85.328 100.615 85.328 100.711 85.328C100.823 85.328 100.919 85.336 100.999 85.352V87.728ZM108.374 98.24C107.398 98.24 106.51 98.072 105.71 97.736C104.926 97.384 104.246 96.912 103.67 96.32C103.094 95.712 102.646 95.024 102.326 94.256C102.022 93.472 101.87 92.64 101.87 91.76C101.87 90.576 102.142 89.496 102.686 88.52C103.23 87.528 103.99 86.736 104.966 86.144C105.942 85.536 107.086 85.232 108.398 85.232C109.71 85.232 110.838 85.536 111.782 86.144C112.742 86.736 113.486 87.52 114.014 88.496C114.542 89.472 114.806 90.52 114.806 91.64C114.806 91.832 114.798 92.016 114.782 92.192C114.766 92.352 114.75 92.488 114.734 92.6H104.678C104.726 93.336 104.926 93.984 105.278 94.544C105.646 95.088 106.11 95.52 106.67 95.84C107.23 96.144 107.83 96.296 108.47 96.296C109.174 96.296 109.838 96.12 110.462 95.768C111.102 95.416 111.534 94.952 111.758 94.376L114.014 95.024C113.742 95.632 113.326 96.184 112.766 96.68C112.222 97.16 111.574 97.544 110.822 97.832C110.07 98.104 109.254 98.24 108.374 98.24ZM104.606 90.848H112.19C112.142 90.128 111.934 89.496 111.566 88.952C111.214 88.392 110.758 87.96 110.198 87.656C109.654 87.336 109.046 87.176 108.374 87.176C107.718 87.176 107.11 87.336 106.55 87.656C106.006 87.96 105.558 88.392 105.206 88.952C104.854 89.496 104.654 90.128 104.606 90.848ZM122.647 98.24C121.671 98.24 120.783 98.072 119.983 97.736C119.199 97.384 118.519 96.912 117.943 96.32C117.367 95.712 116.919 95.024 116.599 94.256C116.295 93.472 116.143 92.64 116.143 91.76C116.143 90.576 116.415 89.496 116.959 88.52C117.503 87.528 118.263 86.736 119.239 86.144C120.215 85.536 121.359 85.232 122.671 85.232C123.983 85.232 125.111 85.536 126.055 86.144C127.015 86.736 127.759 87.52 128.287 88.496C128.815 89.472 129.079 90.52 129.079 91.64C129.079 91.832 129.071 92.016 129.055 92.192C129.039 92.352 129.023 92.488 129.007 92.6H118.951C118.999 93.336 119.199 93.984 119.551 94.544C119.919 95.088 120.383 95.52 120.943 95.84C121.503 96.144 122.103 96.296 122.743 96.296C123.447 96.296 124.111 96.12 124.735 95.768C125.375 95.416 125.807 94.952 126.031 94.376L128.287 95.024C128.015 95.632 127.599 96.184 127.039 96.68C126.495 97.16 125.847 97.544 125.095 97.832C124.343 98.104 123.527 98.24 122.647 98.24ZM118.879 90.848H126.463C126.415 90.128 126.207 89.496 125.839 88.952C125.487 88.392 125.031 87.96 124.471 87.656C123.927 87.336 123.319 87.176 122.647 87.176C121.991 87.176 121.383 87.336 120.823 87.656C120.279 87.96 119.831 88.392 119.479 88.952C119.127 89.496 118.927 90.128 118.879 90.848ZM142.488 98H139.848V90.968C139.848 89.8 139.656 88.944 139.272 88.4C138.904 87.856 138.352 87.584 137.616 87.584C137.104 87.584 136.592 87.712 136.08 87.968C135.584 88.224 135.136 88.576 134.736 89.024C134.336 89.456 134.048 89.96 133.872 90.536V98H131.232V85.448H133.632V87.968C133.952 87.408 134.368 86.928 134.88 86.528C135.408 86.112 136 85.792 136.656 85.568C137.312 85.344 138.008 85.232 138.744 85.232C139.496 85.232 140.112 85.368 140.592 85.64C141.088 85.912 141.472 86.288 141.744 86.768C142.032 87.232 142.224 87.776 142.32 88.4C142.432 89.008 142.488 89.656 142.488 90.344V98ZM151.818 98V80.96H159.234C160.002 80.96 160.706 81.12 161.346 81.44C161.986 81.76 162.538 82.184 163.002 82.712C163.482 83.24 163.85 83.832 164.106 84.488C164.378 85.144 164.514 85.816 164.514 86.504C164.514 87.256 164.378 87.976 164.106 88.664C163.834 89.352 163.442 89.944 162.93 90.44C162.434 90.936 161.85 91.296 161.178 91.52L165.186 98H162.162L158.466 92.072H154.506V98H151.818ZM154.506 89.696H159.21C159.706 89.696 160.146 89.552 160.53 89.264C160.914 88.976 161.218 88.592 161.442 88.112C161.666 87.616 161.778 87.08 161.778 86.504C161.778 85.912 161.65 85.384 161.394 84.92C161.138 84.44 160.802 84.056 160.386 83.768C159.986 83.48 159.546 83.336 159.066 83.336H154.506V89.696ZM172.639 98.24C171.663 98.24 170.775 98.072 169.975 97.736C169.191 97.384 168.511 96.912 167.935 96.32C167.359 95.712 166.911 95.024 166.591 94.256C166.287 93.472 166.135 92.64 166.135 91.76C166.135 90.576 166.407 89.496 166.951 88.52C167.495 87.528 168.255 86.736 169.231 86.144C170.207 85.536 171.351 85.232 172.663 85.232C173.975 85.232 175.103 85.536 176.047 86.144C177.007 86.736 177.751 87.52 178.279 88.496C178.807 89.472 179.071 90.52 179.071 91.64C179.071 91.832 179.063 92.016 179.047 92.192C179.031 92.352 179.015 92.488 178.999 92.6H168.943C168.991 93.336 169.191 93.984 169.543 94.544C169.911 95.088 170.375 95.52 170.935 95.84C171.495 96.144 172.095 96.296 172.735 96.296C173.439 96.296 174.103 96.12 174.727 95.768C175.367 95.416 175.799 94.952 176.023 94.376L178.279 95.024C178.007 95.632 177.591 96.184 177.031 96.68C176.487 97.16 175.839 97.544 175.087 97.832C174.335 98.104 173.519 98.24 172.639 98.24ZM168.871 90.848H176.455C176.407 90.128 176.199 89.496 175.831 88.952C175.479 88.392 175.023 87.96 174.463 87.656C173.919 87.336 173.311 87.176 172.639 87.176C171.983 87.176 171.375 87.336 170.815 87.656C170.271 87.96 169.823 88.392 169.471 88.952C169.119 89.496 168.919 90.128 168.871 90.848ZM180.313 94.328C180.313 93.528 180.537 92.832 180.985 92.24C181.449 91.632 182.081 91.168 182.881 90.848C183.681 90.512 184.609 90.344 185.665 90.344C186.225 90.344 186.793 90.384 187.369 90.464C187.961 90.544 188.481 90.672 188.929 90.848V90.056C188.929 89.176 188.665 88.488 188.137 87.992C187.609 87.496 186.849 87.248 185.857 87.248C185.153 87.248 184.489 87.376 183.865 87.632C183.241 87.872 182.577 88.216 181.873 88.664L180.985 86.888C181.817 86.328 182.649 85.912 183.481 85.64C184.329 85.368 185.217 85.232 186.145 85.232C187.825 85.232 189.145 85.68 190.105 86.576C191.081 87.456 191.569 88.712 191.569 90.344V95.024C191.569 95.328 191.617 95.544 191.713 95.672C191.825 95.8 192.009 95.872 192.265 95.888V98C192.025 98.048 191.809 98.08 191.617 98.096C191.425 98.112 191.265 98.12 191.137 98.12C190.577 98.12 190.153 97.984 189.865 97.712C189.577 97.44 189.409 97.12 189.361 96.752L189.289 96.032C188.745 96.736 188.049 97.28 187.201 97.664C186.353 98.048 185.497 98.24 184.633 98.24C183.801 98.24 183.057 98.072 182.401 97.736C181.745 97.384 181.233 96.912 180.865 96.32C180.497 95.728 180.313 95.064 180.313 94.328ZM188.305 95.096C188.497 94.888 188.649 94.68 188.761 94.472C188.873 94.264 188.929 94.08 188.929 93.92V92.48C188.481 92.304 188.009 92.176 187.513 92.096C187.017 92 186.529 91.952 186.049 91.952C185.089 91.952 184.305 92.144 183.697 92.528C183.105 92.912 182.809 93.44 182.809 94.112C182.809 94.48 182.905 94.832 183.097 95.168C183.305 95.504 183.593 95.776 183.961 95.984C184.345 96.192 184.817 96.296 185.377 96.296C185.953 96.296 186.505 96.184 187.033 95.96C187.561 95.736 187.985 95.448 188.305 95.096ZM193.979 91.736C193.979 90.536 194.22 89.448 194.7 88.472C195.196 87.48 195.868 86.696 196.715 86.12C197.564 85.528 198.54 85.232 199.644 85.232C200.604 85.232 201.468 85.48 202.236 85.976C203.02 86.472 203.628 87.088 204.06 87.824V80.48H206.7V95.024C206.7 95.328 206.756 95.544 206.868 95.672C206.98 95.8 207.164 95.872 207.42 95.888V98C206.924 98.08 206.54 98.12 206.268 98.12C205.772 98.12 205.348 97.976 204.996 97.688C204.66 97.4 204.484 97.056 204.468 96.656L204.444 95.72C203.964 96.52 203.316 97.144 202.5 97.592C201.684 98.024 200.836 98.24 199.956 98.24C199.092 98.24 198.292 98.072 197.556 97.736C196.836 97.4 196.204 96.928 195.66 96.32C195.132 95.712 194.716 95.016 194.412 94.232C194.124 93.448 193.979 92.616 193.979 91.736ZM204.06 93.488V90.2C203.884 89.688 203.596 89.232 203.196 88.832C202.812 88.416 202.372 88.088 201.876 87.848C201.396 87.608 200.916 87.488 200.436 87.488C199.876 87.488 199.364 87.608 198.9 87.848C198.452 88.088 198.06 88.408 197.724 88.808C197.404 89.208 197.156 89.664 196.98 90.176C196.804 90.688 196.715 91.224 196.715 91.784C196.715 92.36 196.812 92.904 197.004 93.416C197.196 93.912 197.468 94.36 197.82 94.76C198.188 95.144 198.604 95.448 199.068 95.672C199.548 95.88 200.068 95.984 200.628 95.984C200.98 95.984 201.332 95.92 201.684 95.792C202.052 95.664 202.396 95.488 202.716 95.264C203.052 95.04 203.332 94.776 203.556 94.472C203.796 94.168 203.964 93.84 204.06 93.488ZM215.741 98.24C214.765 98.24 213.877 98.072 213.077 97.736C212.293 97.384 211.613 96.912 211.037 96.32C210.461 95.712 210.013 95.024 209.693 94.256C209.389 93.472 209.237 92.64 209.237 91.76C209.237 90.576 209.509 89.496 210.053 88.52C210.597 87.528 211.357 86.736 212.333 86.144C213.309 85.536 214.453 85.232 215.765 85.232C217.077 85.232 218.205 85.536 219.149 86.144C220.109 86.736 220.853 87.52 221.381 88.496C221.909 89.472 222.173 90.52 222.173 91.64C222.173 91.832 222.165 92.016 222.149 92.192C222.133 92.352 222.117 92.488 222.101 92.6H212.045C212.093 93.336 212.293 93.984 212.645 94.544C213.013 95.088 213.477 95.52 214.037 95.84C214.597 96.144 215.197 96.296 215.837 96.296C216.541 96.296 217.205 96.12 217.829 95.768C218.469 95.416 218.901 94.952 219.125 94.376L221.381 95.024C221.109 95.632 220.693 96.184 220.133 96.68C219.589 97.16 218.941 97.544 218.189 97.832C217.437 98.104 216.621 98.24 215.741 98.24ZM211.973 90.848H219.557C219.509 90.128 219.301 89.496 218.933 88.952C218.581 88.392 218.125 87.96 217.565 87.656C217.021 87.336 216.413 87.176 215.741 87.176C215.085 87.176 214.477 87.336 213.917 87.656C213.373 87.96 212.925 88.392 212.573 88.952C212.221 89.496 212.021 90.128 211.973 90.848ZM231.382 87.728C230.358 87.744 229.446 87.976 228.646 88.424C227.862 88.872 227.302 89.504 226.966 90.32V98H224.326V85.448H226.774V88.256C227.206 87.392 227.774 86.704 228.478 86.192C229.182 85.664 229.926 85.376 230.71 85.328C230.87 85.328 230.998 85.328 231.094 85.328C231.206 85.328 231.302 85.336 231.382 85.352V87.728Z" fill="white"/>
</svg>
