<svg width="296" height="120" viewBox="0 0 296 120" fill="none" xmlns="http://www.w3.org/2000/svg">
<rect width="296" height="120" rx="20" fill="#FB5E3C"/>
<path d="M148 16L163.903 31.2115C165.992 33.2038 167.652 35.5772 168.784 38.1939C169.917 40.8105 170.5 43.6184 170.5 46.4545C170.5 49.2906 169.917 52.0985 168.784 54.7152C167.652 57.3319 165.992 59.7052 163.903 61.6975C155.117 70.1008 140.883 70.1008 132.097 61.6975C130.008 59.7052 128.348 57.3319 127.216 54.7152C126.083 52.0985 125.5 49.2906 125.5 46.4545C125.5 43.6184 126.083 40.8105 127.216 38.1939C128.348 35.5772 130.008 33.2038 132.097 31.2115L148 16ZM148 22.115L135.265 34.2994C133.598 35.8877 132.274 37.7801 131.37 39.8667C130.467 41.9534 130.001 44.1927 130.001 46.4545C130.001 48.7164 130.467 50.9557 131.37 53.0423C132.274 55.129 133.598 57.0214 135.265 58.6096C142.296 65.3353 153.704 65.3353 160.735 58.6096C162.402 57.0214 163.726 55.129 164.63 53.0423C165.533 50.9557 165.999 48.7164 165.999 46.4545C165.999 44.1927 165.533 41.9534 164.63 39.8667C163.726 37.7801 162.402 35.8877 160.735 34.2994L148 22.115ZM145.75 35.4794H148C151.271 35.4794 154.408 36.7345 156.722 38.9686C159.035 41.2027 160.334 44.2327 160.334 47.3922C160.334 50.5517 159.035 53.5817 156.722 55.8158C154.408 58.0499 151.271 59.305 148 59.305H145.75V35.4794ZM150.25 40.145V54.6416C151.863 54.1731 153.277 53.2151 154.282 51.9095C155.287 50.6039 155.83 49.0203 155.83 47.3933C155.83 45.7663 155.287 44.1827 154.282 42.8771C153.277 41.5715 151.863 40.6135 150.25 40.145Z" fill="white"/>
<path d="M101.336 84.968C101.176 84.792 100.944 84.608 100.64 84.416C100.336 84.208 99.9759 84.016 99.5599 83.84C99.1439 83.664 98.6959 83.52 98.2159 83.408C97.7359 83.296 97.2399 83.24 96.7279 83.24C95.6079 83.24 94.7759 83.448 94.2319 83.864C93.6879 84.28 93.4159 84.856 93.4159 85.592C93.4159 86.136 93.5679 86.568 93.8719 86.888C94.1759 87.192 94.6399 87.448 95.2639 87.656C95.8879 87.864 96.6719 88.088 97.6159 88.328C98.7679 88.6 99.7679 88.928 100.616 89.312C101.464 89.68 102.112 90.176 102.56 90.8C103.008 91.424 103.232 92.248 103.232 93.272C103.232 94.136 103.072 94.88 102.752 95.504C102.432 96.128 101.984 96.64 101.408 97.04C100.832 97.424 100.168 97.712 99.4159 97.904C98.6639 98.08 97.8559 98.168 96.9919 98.168C96.1439 98.168 95.2959 98.08 94.4479 97.904C93.6159 97.728 92.8159 97.472 92.0479 97.136C91.2959 96.784 90.5999 96.36 89.9599 95.864L91.1839 93.56C91.3919 93.768 91.6879 94 92.0719 94.256C92.4719 94.496 92.9279 94.728 93.4399 94.952C93.9679 95.176 94.5359 95.368 95.1439 95.528C95.7679 95.672 96.3999 95.744 97.0399 95.744C98.1119 95.744 98.9279 95.56 99.4879 95.192C100.064 94.808 100.352 94.264 100.352 93.56C100.352 92.984 100.168 92.528 99.7999 92.192C99.4319 91.84 98.8959 91.544 98.1919 91.304C97.4879 91.064 96.6479 90.824 95.6719 90.584C94.5519 90.28 93.6159 89.952 92.8639 89.6C92.1119 89.232 91.5439 88.768 91.1599 88.208C90.7919 87.632 90.6079 86.904 90.6079 86.024C90.6079 84.904 90.8799 83.96 91.4239 83.192C91.9679 82.408 92.7039 81.824 93.6319 81.44C94.5759 81.04 95.6319 80.84 96.7999 80.84C97.5679 80.84 98.2959 80.928 98.9839 81.104C99.6719 81.264 100.312 81.488 100.904 81.776C101.512 82.064 102.064 82.392 102.56 82.76L101.336 84.968ZM104.656 94.328C104.656 93.528 104.88 92.832 105.328 92.24C105.792 91.632 106.424 91.168 107.224 90.848C108.024 90.512 108.952 90.344 110.008 90.344C110.568 90.344 111.136 90.384 111.712 90.464C112.304 90.544 112.824 90.672 113.272 90.848V90.056C113.272 89.176 113.008 88.488 112.48 87.992C111.952 87.496 111.192 87.248 110.2 87.248C109.496 87.248 108.832 87.376 108.208 87.632C107.584 87.872 106.92 88.216 106.216 88.664L105.328 86.888C106.16 86.328 106.992 85.912 107.824 85.64C108.672 85.368 109.56 85.232 110.488 85.232C112.168 85.232 113.488 85.68 114.448 86.576C115.424 87.456 115.912 88.712 115.912 90.344V95.024C115.912 95.328 115.96 95.544 116.056 95.672C116.168 95.8 116.352 95.872 116.608 95.888V98C116.368 98.048 116.152 98.08 115.96 98.096C115.768 98.112 115.608 98.12 115.48 98.12C114.92 98.12 114.496 97.984 114.208 97.712C113.92 97.44 113.752 97.12 113.704 96.752L113.632 96.032C113.088 96.736 112.392 97.28 111.544 97.664C110.696 98.048 109.84 98.24 108.976 98.24C108.144 98.24 107.4 98.072 106.744 97.736C106.088 97.384 105.576 96.912 105.208 96.32C104.84 95.728 104.656 95.064 104.656 94.328ZM112.648 95.096C112.84 94.888 112.992 94.68 113.104 94.472C113.216 94.264 113.272 94.08 113.272 93.92V92.48C112.824 92.304 112.352 92.176 111.856 92.096C111.36 92 110.872 91.952 110.392 91.952C109.432 91.952 108.648 92.144 108.04 92.528C107.448 92.912 107.152 93.44 107.152 94.112C107.152 94.48 107.248 94.832 107.44 95.168C107.648 95.504 107.936 95.776 108.304 95.984C108.688 96.192 109.16 96.296 109.72 96.296C110.296 96.296 110.848 96.184 111.376 95.96C111.904 95.736 112.328 95.448 112.648 95.096ZM126.006 97.352C125.782 97.464 125.502 97.584 125.166 97.712C124.83 97.84 124.446 97.952 124.014 98.048C123.598 98.144 123.166 98.192 122.718 98.192C122.174 98.192 121.67 98.096 121.206 97.904C120.742 97.712 120.366 97.408 120.078 96.992C119.806 96.56 119.67 96.008 119.67 95.336V87.488H118.014V85.448H119.67V81.32H122.31V85.448H125.046V87.488H122.31V94.496C122.342 94.928 122.478 95.248 122.718 95.456C122.974 95.664 123.286 95.768 123.654 95.768C124.022 95.768 124.374 95.704 124.71 95.576C125.046 95.448 125.294 95.344 125.454 95.264L126.006 97.352ZM127.714 93.128V85.448H130.354V92.6C130.354 93.72 130.554 94.568 130.954 95.144C131.37 95.704 131.97 95.984 132.754 95.984C133.25 95.984 133.73 95.88 134.194 95.672C134.674 95.464 135.106 95.16 135.49 94.76C135.89 94.344 136.21 93.848 136.45 93.272V85.448H139.09V95.024C139.09 95.328 139.146 95.544 139.258 95.672C139.37 95.8 139.554 95.872 139.81 95.888V98C139.538 98.048 139.314 98.08 139.138 98.096C138.962 98.112 138.794 98.12 138.634 98.12C138.154 98.12 137.754 97.992 137.434 97.736C137.114 97.464 136.93 97.12 136.882 96.704L136.834 95.456C136.274 96.368 135.546 97.064 134.65 97.544C133.754 98.008 132.77 98.24 131.698 98.24C130.386 98.24 129.394 97.808 128.722 96.944C128.05 96.08 127.714 94.808 127.714 93.128ZM149.515 87.728C148.491 87.744 147.579 87.976 146.779 88.424C145.995 88.872 145.435 89.504 145.099 90.32V98H142.459V85.448H144.907V88.256C145.339 87.392 145.907 86.704 146.611 86.192C147.315 85.664 148.059 85.376 148.843 85.328C149.003 85.328 149.131 85.328 149.227 85.328C149.339 85.328 149.435 85.336 149.515 85.352V87.728ZM150.5 94.328C150.5 93.528 150.724 92.832 151.172 92.24C151.636 91.632 152.268 91.168 153.068 90.848C153.868 90.512 154.796 90.344 155.852 90.344C156.412 90.344 156.98 90.384 157.556 90.464C158.148 90.544 158.668 90.672 159.116 90.848V90.056C159.116 89.176 158.852 88.488 158.324 87.992C157.796 87.496 157.036 87.248 156.044 87.248C155.34 87.248 154.676 87.376 154.052 87.632C153.428 87.872 152.764 88.216 152.06 88.664L151.172 86.888C152.004 86.328 152.836 85.912 153.668 85.64C154.516 85.368 155.404 85.232 156.332 85.232C158.012 85.232 159.332 85.68 160.292 86.576C161.268 87.456 161.756 88.712 161.756 90.344V95.024C161.756 95.328 161.804 95.544 161.9 95.672C162.012 95.8 162.196 95.872 162.452 95.888V98C162.212 98.048 161.996 98.08 161.804 98.096C161.612 98.112 161.452 98.12 161.324 98.12C160.764 98.12 160.34 97.984 160.052 97.712C159.764 97.44 159.596 97.12 159.548 96.752L159.476 96.032C158.932 96.736 158.236 97.28 157.388 97.664C156.54 98.048 155.684 98.24 154.82 98.24C153.988 98.24 153.244 98.072 152.588 97.736C151.932 97.384 151.42 96.912 151.052 96.32C150.684 95.728 150.5 95.064 150.5 94.328ZM158.492 95.096C158.684 94.888 158.836 94.68 158.948 94.472C159.06 94.264 159.116 94.08 159.116 93.92V92.48C158.668 92.304 158.196 92.176 157.7 92.096C157.204 92 156.716 91.952 156.236 91.952C155.276 91.952 154.492 92.144 153.884 92.528C153.292 92.912 152.996 93.44 152.996 94.112C152.996 94.48 153.092 94.832 153.284 95.168C153.492 95.504 153.78 95.776 154.148 95.984C154.532 96.192 155.004 96.296 155.564 96.296C156.14 96.296 156.692 96.184 157.22 95.96C157.748 95.736 158.172 95.448 158.492 95.096ZM171.849 97.352C171.625 97.464 171.345 97.584 171.009 97.712C170.673 97.84 170.289 97.952 169.857 98.048C169.441 98.144 169.009 98.192 168.561 98.192C168.017 98.192 167.513 98.096 167.049 97.904C166.585 97.712 166.209 97.408 165.921 96.992C165.649 96.56 165.513 96.008 165.513 95.336V87.488H163.857V85.448H165.513V81.32H168.153V85.448H170.889V87.488H168.153V94.496C168.185 94.928 168.321 95.248 168.561 95.456C168.817 95.664 169.129 95.768 169.497 95.768C169.865 95.768 170.217 95.704 170.553 95.576C170.889 95.448 171.137 95.344 171.297 95.264L171.849 97.352ZM173.678 98V85.448H176.318V98H173.678ZM173.678 83.384V80.48H176.318V83.384H173.678ZM185.13 98.24C184.138 98.24 183.25 98.072 182.466 97.736C181.682 97.384 181.002 96.904 180.426 96.296C179.866 95.688 179.434 95 179.13 94.232C178.826 93.448 178.674 92.616 178.674 91.736C178.674 90.856 178.826 90.024 179.13 89.24C179.434 88.456 179.866 87.768 180.426 87.176C181.002 86.568 181.682 86.096 182.466 85.76C183.266 85.408 184.154 85.232 185.13 85.232C186.106 85.232 186.986 85.408 187.77 85.76C188.57 86.096 189.25 86.568 189.81 87.176C190.386 87.768 190.826 88.456 191.13 89.24C191.434 90.024 191.586 90.856 191.586 91.736C191.586 92.616 191.434 93.448 191.13 94.232C190.826 95 190.386 95.688 189.81 96.296C189.25 96.904 188.57 97.384 187.77 97.736C186.986 98.072 186.106 98.24 185.13 98.24ZM181.386 91.76C181.386 92.56 181.554 93.28 181.89 93.92C182.226 94.56 182.674 95.064 183.234 95.432C183.794 95.8 184.426 95.984 185.13 95.984C185.818 95.984 186.442 95.8 187.002 95.432C187.578 95.048 188.034 94.536 188.37 93.896C188.706 93.24 188.874 92.52 188.874 91.736C188.874 90.936 188.706 90.216 188.37 89.576C188.034 88.936 187.578 88.432 187.002 88.064C186.442 87.68 185.818 87.488 185.13 87.488C184.426 87.488 183.794 87.68 183.234 88.064C182.674 88.448 182.226 88.96 181.89 89.6C181.554 90.224 181.386 90.944 181.386 91.76ZM205.184 98H202.544V90.968C202.544 89.8 202.352 88.944 201.968 88.4C201.6 87.856 201.048 87.584 200.312 87.584C199.8 87.584 199.288 87.712 198.776 87.968C198.28 88.224 197.832 88.576 197.432 89.024C197.032 89.456 196.744 89.96 196.568 90.536V98H193.928V85.448H196.328V87.968C196.648 87.408 197.064 86.928 197.576 86.528C198.104 86.112 198.696 85.792 199.352 85.568C200.008 85.344 200.704 85.232 201.44 85.232C202.192 85.232 202.808 85.368 203.288 85.64C203.784 85.912 204.168 86.288 204.44 86.768C204.728 87.232 204.92 87.776 205.016 88.4C205.128 89.008 205.184 89.656 205.184 90.344V98Z" fill="white"/>
</svg>
